# xmcd
#
# Track frame offsets: 
# 150
# 20544
# 38318
# 50754
# 70660
# 85809
# 98170
# 111565
# 126147
# 141654
# 160985
#
# Disc length: 2316 seconds
# Submitted via: tkcNetwork 1.0
# Revision: 0
# Processed by: cddbd v1.5.2PL0 Copyright (c) Steve Scherf et al.
#
DISCID=96090a0b
DTITLE=Steve Grace - Heritage vol 2
DYEAR=2011
DGENRE=Country
TTITLE0=Are You Washed In The Blood ?
TTITLE1=Rock Of Ages
TTITLE2=Lead Me To Calvary
TTITLE3=Great Is Thy Faithfulness
TTITLE4=We Shall See The King
TTITLE5=Crown Him With Many Crowns
TTITLE6=When The Roll Is Called Up Yonder
TTITLE7=Battle Hymn Of The Republic
TTITLE8=Near The Cross
TTITLE9=The Joy Of The Lord
TTITLE10=In Jesus (I've Tried In Vain)
EXTD=
EXTT0=
EXTT1=
EXTT2=
EXTT3=
EXTT4=
EXTT5=
EXTT6=
EXTT7=
EXTT8=
EXTT9=
EXTT10=
PLAYORDER=
